<svg xmlns="http://www.w3.org/2000/svg" viewBox="0 0 576 512"><path fill="#fff" d="M24 0C10.7 0 0 10.7 0 24s10.7 24 24 24h45.5c3.8 0 7.1 2.7 7.9 6.5l51.6 271c6.5 34 36.2 58.5 70.7 58.5H488c13.3 0 24-10.7 24-24s-10.7-24-24-24H199.7c-11.5 0-21.4-8.2-23.6-19.5l-5.4-28.5h288.5c32.6 0 61.1-21.8 69.5-53.3l41-152.3C576.6 57 557.4 32 531.1 32h-411C111 12.8 91.6 0 69.5 0H24zm107.1 80h389.6l-38.3 142.2c-2.8 10.5-12.3 17.8-23.2 17.8H161.6L131.1 80zM176 512a48 48 0 1 0 0-96 48 48 0 1 0 0 96zm336-48a48 48 0 1 0-96 0 48 48 0 1 0 96 0z"/></svg>