<?xml version="1.0" encoding="utf-8"?>
<!-- Generator: Adobe Illustrator 28.1.0, SVG Export Plug-In . SVG Version: 6.00 Build 0)  -->
<svg version="1.1" id="Layer_1" xmlns="http://www.w3.org/2000/svg" xmlns:xlink="http://www.w3.org/1999/xlink" x="0px" y="0px"
	 viewBox="0 0 23 31" style="enable-background:new 0 0 23 31;" xml:space="preserve">
<style type="text/css">
	.st0{fill:#FFFFFF;}
</style>
<path class="st0" d="M18.8,2.2c-1.4,0.5-3,0.5-4.5,0l-2.2-0.7c-1.7-0.6-3.6-0.6-5.3,0L5.2,2C4.4,2.3,3.5,2.5,2.7,2.5V0.3H0.2v29h2.5
	V5c1.1-0.1,2.2-0.3,3.3-0.6l1.7-0.5c1.2-0.4,2.5-0.4,3.7,0l2.2,0.7c1.9,0.6,4.1,0.6,6,0l0.6-0.2V16l-1.3,0.4c-1.4,0.5-3,0.5-4.5,0
	l-2.2-0.7c-1.7-0.6-3.6-0.6-5.3,0l-2.1,0.7v2.6L7.6,18c1.2-0.4,2.5-0.4,3.7,0l2.2,0.7c1.9,0.6,4.1,0.6,6,0l3-1V1L18.8,2.2z"/>
</svg>
