<svg width="22" height="32" viewBox="0 0 22 32" fill="none" xmlns="http://www.w3.org/2000/svg">
<g id="Group 330">
<path id="Vector" d="M11.09 18.23C10.5516 18.2341 10.0301 18.4183 9.60861 18.7533C9.18714 19.0884 8.88999 19.5549 8.76456 20.0785C8.63912 20.602 8.69263 21.1526 8.91655 21.6422C9.14047 22.1318 9.5219 22.5324 10 22.78V25.64H12V22.87C12.5163 22.6584 12.9432 22.2742 13.2079 21.7829C13.4725 21.2916 13.5585 20.7237 13.4511 20.1762C13.3437 19.6286 13.0496 19.1352 12.619 18.7803C12.1884 18.4254 11.648 18.2309 11.09 18.23Z" fill="#F3EEEA"/>
<path id="Vector_2" d="M19 12.64V8.36C19.0429 6.19189 18.2253 4.09504 16.726 2.52829C15.2268 0.961536 13.1679 0.0524659 11 0C8.8321 0.0524659 6.77324 0.961536 5.27396 2.52829C3.77468 4.09504 2.95705 6.19189 3 8.36V12.64H0V29.64C0 30.1704 0.210714 30.6791 0.585786 31.0542C0.960859 31.4293 1.46957 31.64 2 31.64H20C20.5304 31.64 21.0391 31.4293 21.4142 31.0542C21.7893 30.6791 22 30.1704 22 29.64V12.64H19ZM5 8.36C4.95689 6.72224 5.56376 5.13399 6.68801 3.94228C7.81227 2.75057 9.3625 2.05228 11 2C12.6375 2.05228 14.1877 2.75057 15.312 3.94228C16.4362 5.13399 17.0431 6.72224 17 8.36V12.64H5V8.36ZM2 29.64V14.64H20V29.64H2Z" fill="#F3EEEA"/>
</g>
</svg>
