<svg width="55" height="25" viewBox="0 0 55 25" fill="none" xmlns="http://www.w3.org/2000/svg">
<g id="Layer_1" clip-path="url(#clip0_72_15791)">
<path id="Vector" d="M53.1576 23.5476C53.06 23.4215 52.9529 23.3017 52.8375 23.1897L52.8372 23.1894L52.8327 23.185L52.8324 23.1847L52.4321 22.7961C52.3625 22.7286 52.2806 22.6419 52.2289 22.5872C52.2123 22.5696 52.1988 22.5554 52.1899 22.5461L52.1757 22.5314L52.1621 22.5162L51.549 21.832L51.5486 21.8316C51.1719 21.4107 50.9031 20.9001 50.779 20.3402L50.7788 20.3392C50.7785 20.3379 50.7779 20.3354 50.7769 20.3314C50.7758 20.3274 50.7743 20.3218 50.772 20.3142C50.7673 20.298 50.7618 20.2803 50.7522 20.2502C50.7519 20.249 50.7515 20.2478 50.7511 20.2466L50.4546 19.3322L53.1576 23.5476ZM53.1576 23.5476L46.2215 23.7553L31.5976 23.9097L23.3384 23.8349L13.3276 23.5848L13.5723 16.9943C13.6086 16.1487 12.9376 15.516 12.1764 15.4808L12.1755 15.4807L1.12887 14.9792L1.90837 1.12163L12.7126 1.61876L12.7229 1.61923L12.7332 1.61951L21.8709 1.86787L21.8814 1.86816L21.8919 1.86824L33.6284 1.96187C33.6294 1.96189 33.6304 1.96191 33.6313 1.96193C33.7372 1.96405 33.8384 1.99416 33.9279 2.04978C33.9289 2.05036 33.9298 2.05095 33.9307 2.05153L34.898 2.67137C35.1331 2.82522 35.3863 2.93486 35.6409 3.00477C35.6421 3.00512 35.6434 3.00546 35.6446 3.00581L37.276 3.46229C37.2767 3.4625 37.2775 3.46272 37.2783 3.46294C37.796 3.60881 38.3541 3.52803 38.8102 3.2373L39.8873 3.24594V3.24597H39.8961H39.8962H39.8963H39.8964H39.8965H39.8965H39.8966H39.8967H39.8968H39.8969H39.897H39.8971H39.8972H39.8973H39.8973H39.8974H39.8975H39.8976H39.8977H39.8978H39.8979H39.898H39.8981H39.8982H39.8983H39.8984H39.8985H39.8986H39.8987H39.8988H39.8989H39.8989H39.899H39.8991H39.8992H39.8993H39.8994H39.8995H39.8996H39.8997H39.8998H39.8999H39.9H39.9001H39.9002H39.9003H39.9004H39.9006H39.9007H39.9008H39.9009H39.901H39.9011H39.9012H39.9013H39.9014H39.9015H39.9016H39.9017H39.9018H39.9019H39.902H39.9021H39.9022H39.9023H39.9025H39.9026H39.9027H39.9028H39.9029H39.903H39.9031H39.9032H39.9033H39.9034H39.9036H39.9037H39.9038H39.9039H39.904H39.9041H39.9042H39.9043H39.9045H39.9046H39.9047H39.9048H39.9049H39.905H39.9051H39.9053H39.9054H39.9055H39.9056H39.9057H39.9058H39.9059H39.9061H39.9062H39.9063H39.9064H39.9065H39.9066H39.9068H39.9069H39.907H39.9071H39.9072H39.9074H39.9075H39.9076H39.9077H39.9078H39.908H39.9081H39.9082H39.9083H39.9084H39.9086H39.9087H39.9088H39.9089H39.909H39.9092H39.9093H39.9094H39.9095H39.9096H39.9098H39.9099H39.91H39.9101H39.9103H39.9104H39.9105H39.9106H39.9107H39.9109H39.911H39.9111H39.9112H39.9114H39.9115H39.9116H39.9117H39.9119H39.912H39.9121H39.9122H39.9124H39.9125H39.9126H39.9127H39.9129H39.913H39.9131H39.9132H39.9134H39.9135H39.9136H39.9137H39.9139H39.914H39.9141H39.9142H39.9144H39.9145H39.9146H39.9147H39.9149H39.915H39.9151H39.9152H39.9154H39.9155H39.9156H39.9157H39.9159H39.916H39.9161H39.9162H39.9164H39.9165H39.9166H39.9167H39.9169H39.917H39.9171H39.9172H39.9174H39.9175H39.9176H39.9178H39.9179H39.918H39.9181H39.9183H39.9184H39.9185H39.9186H39.9188H39.9189H39.919H39.9191H39.9193H39.9194H39.9195H39.9196H39.9198H39.9199H39.92H39.9201H39.9203H39.9204H39.9205H39.9206H39.9208H39.9209H39.921H39.9211H39.9213H39.9214H39.9215H39.9216H39.9218H39.9219H39.922H39.9221H39.9223H39.9224H39.9225H39.9226H39.9228H39.9229H39.923H39.9231H39.9232H39.9234H39.9235H39.9236H39.9237H39.9239H39.924H39.9241H39.9242H39.9243H39.9245H39.9246H39.9247H39.9248H39.925H39.9251H39.9252H39.9253H39.9254H39.9256H39.9257H39.9258H39.9259H39.926H39.9262H39.9263H39.9264H39.9265H39.9266H39.9268H39.9269H39.927H39.9271H39.9272H39.9273H39.9275H39.9276H39.9277H39.9278H39.9279H39.928H39.9282H39.9283H39.9284H39.9285H39.9286H39.9287H39.9289H39.929H39.9291H39.9292H39.9293H39.9294H39.9295H39.9297H39.9298H39.9299H39.93H39.9301H39.9302H39.9303H39.9304H39.9306H39.9307H39.9308H39.9309H39.931H39.9311H39.9312H39.9313H39.9314H39.9315H39.9317H39.9318H39.9319H39.932H39.9321H39.9322H39.9323H39.9324H39.9325H39.9326H39.9327H39.9328H39.9329H39.933H39.9331H39.9332H39.9333H39.9335H39.9336H39.9337H39.9338H39.9339H39.934H39.9341H39.9342H39.9343H39.9344H39.9345H39.9346H39.9347H39.9348H39.9349H39.935H39.9351H39.9352H39.9353H39.9354H39.9354H39.9355H39.9356H39.9357H39.9358H39.9359H39.936H39.9361H39.9362H39.9363H39.9364H39.9365H39.9366H39.9367H39.9368H39.9368H39.9369H39.937H39.9371H39.9372H39.9373H39.9374H39.9375H39.9376H39.9376H39.9377H39.9378H39.9379H39.938H39.9381H39.9381H39.9382H39.9383H39.9384H39.9385H39.9386H39.9386H39.9387H39.9388H39.9389H39.939H39.939H39.9391H39.9392H39.9393H39.9394H39.9394H39.9395H39.9396H39.9397H39.9397H39.9398H39.9399H39.9399H39.94H39.9401H39.9402H39.9402H39.9403H39.9404H39.9404H39.9405H39.9406H39.9406H39.9407H39.9408H39.9409H39.9409H39.941H39.941H39.9411H39.9412H39.9412H39.9413H39.9414H39.9414H39.9415H39.9415H39.9416H39.9417H39.9417H39.9418H39.9418H39.9419H39.9419H39.942H39.9421H39.9421H39.9422H39.9422H39.9423H39.9423H39.9424H39.9424H39.9425H39.9425H39.9426H39.9426H39.9427H39.9427H39.9428H39.9428H39.9429H39.9429H39.943H39.943H39.943H39.9431H39.9431H39.9432H39.9432H39.9432H39.9433H39.9433H39.9434H39.9434H39.9434H39.9435H39.9435H39.9435H39.9436H39.9436H39.9436H39.9437H39.9437H39.9437H39.9438H39.9438H39.9439H39.9439H39.944H39.944H39.9441H39.9441H39.9442H39.9442H39.9442H39.9443H39.9443H39.9443H39.9444H39.9444H39.9725L40.0006 3.24453L41.5457 3.16509C41.5463 3.16506 41.5468 3.16503 41.5474 3.165C41.7205 3.15717 41.8889 3.20291 42.0256 3.28855C42.0259 3.28873 42.0262 3.28891 42.0265 3.28909L42.9507 3.87323L42.9646 3.88198L42.9787 3.89031C43.1303 3.97988 43.2952 4.06448 43.4821 4.13704L43.4821 4.1371L43.4928 4.14113L44.5752 4.54847C44.7304 4.88914 44.9768 5.19785 45.3116 5.42434L45.3208 5.43062L45.3302 5.4367L45.3728 5.46425C45.687 5.68053 46.0501 5.80919 46.4304 5.83847L46.4722 5.84211L46.5173 5.96402L46.8736 7.06062C46.8855 7.10159 46.8864 7.12134 46.8865 7.12282C46.8865 7.12293 46.8865 7.12294 46.8865 7.12286V7.14629V7.15554L46.8867 7.16478C46.8955 7.68751 47.0728 8.19348 47.3972 8.61053L47.3971 8.61054L47.4022 8.61688L47.8457 9.17853C48.0667 9.4588 48.2298 9.76424 48.3332 10.0888L48.3331 10.0888L48.3374 10.1017L48.3845 10.2434C48.3846 10.2438 48.3848 10.2442 48.3849 10.2446C48.4603 10.4746 48.5058 10.7173 48.5198 10.9662L48.5773 11.9844C48.5774 11.9862 48.5775 11.988 48.5776 11.9898C48.6056 12.5249 48.8886 12.9868 49.2978 13.2707L49.565 13.8415L50.2042 15.8888L50.2056 15.8932C50.2283 15.9649 50.239 16.0164 50.2436 16.0571L50.2447 16.0665L50.2459 16.0758L50.3706 17.0205C50.3814 17.1125 50.3826 17.1967 50.3762 17.2674L50.376 17.2688L50.3093 18.0141C50.3092 18.0157 50.309 18.0174 50.3088 18.0191C50.2657 18.4662 50.3175 18.9109 50.454 19.3303L53.1576 23.5476ZM13.3019 24.2776L13.3021 24.2722L13.3019 24.2776Z" stroke="#F3EEEA" stroke-width="2.19"/>
</g>
<defs>
<clipPath id="clip0_72_15791">
<rect width="55" height="25" fill="white"/>
</clipPath>
</defs>
</svg>
