<svg width="63" height="17" viewBox="0 0 63 17" fill="none" xmlns="http://www.w3.org/2000/svg">
<path d="M3.40741 4.09798C2.63741 4.91198 1.42741 5.24198 0.217407 5.26398V2.95398C1.84541 2.77798 2.96741 2.02998 3.40741 0.599978H6.22341V16H3.40741V4.09798Z" fill="#F3EEEA"/>
<path d="M14.8197 16.22C11.7177 16.22 8.70374 14.02 8.70374 8.29998C8.70374 2.62398 11.7177 0.401978 14.8197 0.401978C17.9217 0.401978 20.9357 2.62398 20.9357 8.29998C20.9357 14.02 17.9217 16.22 14.8197 16.22ZM11.3877 8.29998C11.3877 11.358 12.3777 13.844 14.8197 13.844C17.2397 13.844 18.2297 11.358 18.2297 8.29998C18.2297 5.28598 17.2397 2.77798 14.8197 2.77798C12.3777 2.77798 11.3877 5.28598 11.3877 8.29998Z" fill="#F3EEEA"/>
<path d="M28.7416 16.22C25.6396 16.22 22.6256 14.02 22.6256 8.29998C22.6256 2.62398 25.6396 0.401978 28.7416 0.401978C31.8436 0.401978 34.8576 2.62398 34.8576 8.29998C34.8576 14.02 31.8436 16.22 28.7416 16.22ZM25.3096 8.29998C25.3096 11.358 26.2996 13.844 28.7416 13.844C31.1616 13.844 32.1516 11.358 32.1516 8.29998C32.1516 5.28598 31.1616 2.77798 28.7416 2.77798C26.2996 2.77798 25.3096 5.28598 25.3096 8.29998Z" fill="#F3EEEA"/>
<path d="M36.8775 16V0.599978H39.7595V8.21198L46.3155 0.599978H49.7255L43.7195 7.52998L50.3195 16H46.9755L41.9375 9.57598L39.7595 12.106V16H36.8775Z" fill="#F3EEEA"/>
<path d="M55.8551 15.01V11.028H51.8951V8.56398H55.8551V4.60398H58.4731V8.56398H62.4551V11.028H58.4731V15.01H55.8551Z" fill="#F3EEEA"/>
</svg>
