<svg xmlns="http://www.w3.org/2000/svg" xml:space="preserve" style="enable-background:new 0 0 75 75" viewBox="0 0 75 75"><path d="M12.9 33.8c-.7.7-1.7 1-2.8 1v-2c1.4-.2 2.4-.8 2.8-2.1h2.5v13.6h-2.5V33.8zM23 44.5c-2.7 0-5.4-1.9-5.4-7 0-5 2.7-7 5.4-7s5.4 2 5.4 7c-.1 5-2.7 7-5.4 7zm-3.1-7c0 2.7.9 4.9 3 4.9s3-2.2 3-4.9-.9-4.9-3-4.9-3 2.2-3 4.9zm15.3 7c-2.7 0-5.4-1.9-5.4-7 0-5 2.7-7 5.4-7s5.4 2 5.4 7-2.7 7-5.4 7zm-3-7c0 2.7.9 4.9 3 4.9s3-2.2 3-4.9-.9-4.9-3-4.9-3 2.2-3 4.9zm10.2 6.8V30.7h2.5v6.7l5.8-6.7h3l-5.3 6.1 5.8 7.5h-2.9l-4.4-5.7-1.9 2.2v3.4c-.1.1-2.6.1-2.6.1zm16.7-.9v-3.5h-3.5v-2.2h3.5v-3.5h2.3v3.5h3.5v2.2h-3.5v3.5h-2.3z" style="fill:#f3eeea"/></svg>