<svg width="18" height="18" viewBox="0 0 18 18" fill="none" xmlns="http://www.w3.org/2000/svg">
<g clip-path="url(#clip0_846_15036)">
<path d="M8.7282 3.5C10.4182 3.5 11.7982 4.88 11.7982 6.57C11.7982 8.26 10.4182 9.64 8.7282 9.64C7.0382 9.64 5.6582 8.26 5.6582 6.57C5.6582 4.88 7.0382 3.5 8.7282 3.5ZM8.7282 2C6.2082 2 4.1582 4.04 4.1582 6.57C4.1582 9.1 6.1982 11.14 8.7282 11.14C11.2582 11.14 13.2982 9.1 13.2982 6.57C13.2982 4.04 11.2482 2 8.7282 2Z" fill="#F3EEEA"/>
<path d="M0.539062 16.95C2.73906 14.92 5.49906 13.41 8.71906 13.41C11.9391 13.41 14.7991 14.75 16.8491 16.89" stroke="#F3EEEA" stroke-width="1.5" stroke-miterlimit="10"/>
</g>
<defs>
<clipPath id="clip0_846_15036">
<rect width="17.4" height="17.4" fill="white"/>
</clipPath>
</defs>
</svg>
