<svg xmlns="http://www.w3.org/2000/svg" width="75" height="75" fill="none"><path stroke="#F3EEEA" stroke-width="2.19" d="M62.838 48.19c.115.112.223.232.32.358l-6.936.208-14.624.154-8.259-.074-10.01-.25.244-6.591c.036-.846-.635-1.478-1.396-1.514L11.13 39.98l.779-13.858 10.804.497h.01l.01.001 9.139.248h.02l11.737.095h.003a.582.582 0 0 1 .297.087l.002.002.968.62c.235.154.488.264.742.333l.004.001 1.632.457h.002a1.895 1.895 0 0 0 1.532-.225l1.077.009H49.973l.028-.002 1.545-.08h.002a.835.835 0 0 1 .48.125l.923.584.014.009.014.008c.152.09.317.174.504.247l.01.004 1.083.407c.155.34.401.65.736.876l.01.006.009.006.042.028c.315.216.678.345 1.058.374l.042.004.045.122.356 1.096c.013.044.013.064.013.063v.041c.01.523.186 1.03.51 1.446l.006.007.443.561c.221.28.384.586.488.91l.004.013.047.142v.001c.076.23.121.473.135.722l.058 1.018v.005c.028.536.311.997.72 1.281l.268.571.639 2.047.001.005a.867.867 0 0 1 .038.164l.001.01.002.008.124.945c.011.092.012.176.006.247v.002l-.067.745v.005c-.044.447.008.892.145 1.311v.002l.297.914v.004a2.654 2.654 0 0 1 .025.078l.002.01v.002c.125.56.393 1.07.77 1.491l.614.685.013.015.014.015.04.04c.051.055.133.142.203.21l.4.388.005.005Zm-39.536 1.088v-.005.005Z"/></svg>