<svg width="25" height="32" viewBox="0 0 25 32" fill="none" xmlns="http://www.w3.org/2000/svg">
<path d="M2.76786 0.875V1V3.26483C3.84665 3.21542 4.91022 3.02416 5.93608 2.69114L2.76786 0.875ZM2.76786 0.875H2.64286H1H0.875V1V31V31.125H1H2.64286H2.76786V31V5.11116C4.04779 5.06552 5.31659 4.84004 6.53186 4.44391C6.53192 4.44389 6.53198 4.44387 6.53204 4.44385L8.34398 3.85896L8.34444 3.85881C9.01975 3.63794 9.73052 3.525 10.4464 3.525C11.1623 3.525 11.8731 3.63794 12.5484 3.85881L12.5488 3.85894L14.9462 4.63389C15.9443 4.95792 16.9944 5.125 18.0446 5.125C19.0949 5.125 20.1449 4.95792 21.1431 4.63389L22.2321 4.28178M2.76786 0.875L22.2321 4.28178M22.2321 4.28178V17.5342L20.5476 18.081L22.2321 4.28178ZM24.125 1.72316V1.895V18.775V18.8661L24.0383 18.894L23.4789 19.0739L23.4787 19.074L21.1482 19.8289L24.125 1.72316ZM24.125 1.72316L23.9615 1.77607M24.125 1.72316L23.9615 1.77607M23.9615 1.77607L20.5476 2.88104L23.9615 1.77607ZM14.9514 19.8289L14.9513 19.8289L12.5537 19.0489L12.5536 19.0488C11.8782 18.8279 11.1675 18.715 10.4516 18.715C9.73565 18.715 9.02489 18.8279 8.34957 19.0488L5.96747 19.8288L5.80357 19.8825V19.71V18.025V17.9342L5.88988 17.9061L7.74825 17.3012C8.61842 17.017 9.52997 16.875 10.4464 16.875C11.3629 16.875 12.2744 17.017 13.1445 17.3011C13.1445 17.3012 13.1446 17.3012 13.1446 17.3012L15.5417 18.081C16.3508 18.342 17.1952 18.475 18.0446 18.475C18.894 18.475 19.7384 18.3421 20.5473 18.0811L14.9514 19.8289ZM14.9514 19.8289C15.9495 20.1529 16.9996 20.32 18.0498 20.32C19.1 20.32 20.15 20.1529 21.1481 19.8289L14.9514 19.8289ZM7.74825 2.10118L5.93618 2.69111L7.74825 2.10118ZM10.4464 1.675C9.53001 1.675 8.61849 1.81698 7.74836 2.10114L20.5474 2.88107C19.7384 3.14205 18.8941 3.275 18.0446 3.275C17.1952 3.275 16.3508 3.14205 15.5418 2.88107C15.5418 2.88106 15.5418 2.88105 15.5417 2.88104L13.1446 2.10118C12.2744 1.817 11.3629 1.675 10.4464 1.675Z" fill="white" stroke="white" stroke-width="0.25"/>
</svg>
