<?xml version="1.0" encoding="utf-8"?>
<!-- Generator: Adobe Illustrator 28.3.0, SVG Export Plug-In . SVG Version: 6.00 Build 0)  -->
<svg version="1.1" id="Layer_1" xmlns="http://www.w3.org/2000/svg" xmlns:xlink="http://www.w3.org/1999/xlink" x="0px" y="0px"
	 viewBox="0 0 75 75" style="enable-background:new 0 0 75 75;" xml:space="preserve">
<style type="text/css">
	.st0{fill:#F3EEEA;}
</style>
<path class="st0" d="M44.9,24.9c-1.4,0.5-3,0.5-4.5,0l-2.2-0.7c-1.7-0.6-3.6-0.6-5.3,0l-1.6,0.5c-0.8,0.3-1.7,0.5-2.5,0.5V23h-2.5
	v29h2.5V27.7c1.1-0.1,2.2-0.3,3.3-0.6l1.7-0.5c1.2-0.4,2.5-0.4,3.7,0l2.2,0.7c1.9,0.6,4.1,0.6,6,0l0.6-0.2v11.6L45,39.1
	c-1.4,0.5-3,0.5-4.5,0l-2.2-0.7c-1.7-0.6-3.6-0.6-5.3,0l-2.1,0.7v2.6l2.8-1c1.2-0.4,2.5-0.4,3.7,0l2.2,0.7c1.9,0.6,4.1,0.6,6,0l3-1
	V23.7L44.9,24.9z"/>
</svg>
