<svg width="14" height="14" viewBox="0 0 14 14" fill="none" xmlns="http://www.w3.org/2000/svg">
<path fill-rule="evenodd" clip-rule="evenodd" d="M0.583374 6.99998C0.583374 10.5438 3.45621 13.4166 7.00004 13.4166C10.5439 13.4166 13.4167 10.5438 13.4167 6.99998C13.4167 3.45615 10.5439 0.583313 7.00004 0.583313C3.45621 0.583313 0.583374 3.45615 0.583374 6.99998ZM12.2499 7C12.2499 9.8995 9.89937 12.25 6.99988 12.25C4.10038 12.25 1.74988 9.8995 1.74988 7C1.74988 4.10051 4.10038 1.75 6.99988 1.75C9.89937 1.75 12.2499 4.10051 12.2499 7ZM7.5853 8.16571H8.16825V9.33237H5.83492V8.16571H6.41825V6.99904H5.83492V5.83237H7.5853V8.16571ZM7.58359 4.66571C7.58359 4.98787 7.32234 5.24904 7.00007 5.24904C6.6778 5.24904 6.41654 4.98787 6.41654 4.66571C6.41654 4.34354 6.6778 4.08237 7.00007 4.08237C7.32234 4.08237 7.58359 4.34354 7.58359 4.66571Z" fill="#04739E"/>
</svg>
