<svg width="223" height="50" viewBox="0 0 223 50" fill="none" xmlns="http://www.w3.org/2000/svg">
<g clip-path="url(#clip0_738_7491)">
<path d="M18.5984 33.2001C19.8717 37.0389 18.0663 40.7067 13.689 42.303C10.4837 43.4813 7.6394 42.7211 5.23855 41.4225C5.81501 40.0606 6.3978 38.6986 6.99959 37.3366C9.12171 38.5339 10.9714 38.8126 12.4157 38.2868C14.2021 37.6344 14.7596 36.3738 14.2148 34.8281C13.7524 33.5168 12.5108 32.7567 9.12805 32.4399C4.82679 32.0218 1.92551 31.1983 0.44319 27.4355C-0.906099 24.0401 0.880284 20.2077 5.23855 18.6113C8.4439 17.4457 10.8574 17.9082 13.4103 19.4348C12.7071 20.6891 12.0103 21.9497 11.3262 23.2103C9.31175 22.2157 8.31721 21.9814 6.57517 22.6148C5.11819 23.1469 4.49739 24.3505 4.92815 25.4908C5.44126 26.8654 6.62584 27.3722 9.81853 27.7396C14.8989 28.3224 17.2935 29.3106 18.6047 33.2001H18.5984Z" fill="#F3EEEA"/>
<path d="M35.5816 24.794C37.1969 30.9323 36.291 35.0625 31.0143 36.5955C25.9148 38.1031 22.6778 34.9865 20.7901 29.2156C19.2824 24.5532 17.7748 19.8909 16.2734 15.2286C17.8191 14.7281 19.3711 14.2404 20.9231 13.7653C22.3547 18.4529 23.7864 23.1406 25.218 27.8219C26.4533 31.8508 27.8406 33.0291 29.8233 32.4399C31.8441 31.8508 32.2685 30.1404 31.1219 26.0799C29.7853 21.3669 28.455 16.6476 27.1184 11.9345C28.6768 11.4911 30.2414 11.0667 31.8061 10.6486C33.0604 15.3616 34.3146 20.0746 35.5626 24.7876L35.5816 24.794Z" fill="#F3EEEA"/>
<path d="M56.8219 29.9124C55.2319 30.2228 53.6482 30.5459 52.0645 30.8816C50.1515 28.1323 48.2004 25.3958 46.2113 22.6782C45.7172 22.7922 45.2294 22.8999 44.7353 23.0139C45.4321 26.0229 46.1353 29.0319 46.8321 32.0408C45.3814 32.3766 43.9308 32.725 42.4865 33.0861C40.5227 25.1994 38.559 17.3127 36.6016 9.41967C38.9391 8.83688 41.2829 8.28576 43.6267 7.75999C48.7895 6.60707 52.5903 8.48847 53.5405 13.4422C54.1867 16.7932 52.7677 19.2321 50.5379 20.8411C52.679 23.8438 54.7758 26.8654 56.8219 29.9124ZM48.9289 14.4494C48.4791 12.302 47.1425 11.3264 44.3362 11.9535C43.6521 12.1056 42.9679 12.2639 42.2838 12.4223C42.7969 14.6268 43.31 16.8313 43.8231 19.0421C44.5769 18.8647 45.3308 18.6937 46.0846 18.529C48.4158 18.0095 49.3913 16.6349 48.9289 14.4494Z" fill="#F3EEEA"/>
<path d="M72.5636 10.5409C73.2161 15.7607 69.5863 18.852 65.2914 19.5425C64.6136 19.6502 63.9358 19.7579 63.2643 19.8719C63.7394 22.7479 64.2145 25.6238 64.6896 28.4998C63.2263 28.7405 61.763 28.9939 60.2997 29.2599C58.849 21.2592 57.392 13.2648 55.9414 5.26412C58.3042 4.83337 60.6671 4.43428 63.0363 4.06053C68.1357 3.25603 71.9302 5.46683 72.5636 10.5409ZM67.9076 11.2504C67.6226 9.24864 66.4126 7.82967 63.6571 8.26677C62.9032 8.38713 62.1494 8.50748 61.3956 8.63418C61.782 10.9843 62.1747 13.3282 62.5612 15.6784C63.3213 15.5517 64.0815 15.4313 64.8416 15.3109C67.1918 14.9435 68.218 13.4612 67.9013 11.2567L67.9076 11.2504Z" fill="#F3EEEA"/>
<path d="M90.0097 25.4654C85.9429 25.7695 81.8887 26.1559 77.8345 26.6374C76.8843 18.567 75.9341 10.4902 74.9775 2.41985C76.5739 2.22981 78.1766 2.05878 79.7792 1.89407C80.4634 8.57083 81.1412 15.2476 81.8253 21.9244C84.4479 21.6583 87.0705 21.4239 89.6994 21.2275C89.807 22.6402 89.9084 24.0528 90.0161 25.4654H90.0097Z" fill="#F3EEEA"/>
<path d="M107.164 14.9499C107.234 21.3036 105.365 25.079 99.9235 25.2817C94.6657 25.4971 92.3092 21.6773 91.8974 15.6213C91.5744 10.731 91.2576 5.84059 90.9346 0.950211C92.5372 0.842521 94.1463 0.753835 95.7489 0.671484C95.9896 5.5682 96.2367 10.4586 96.4774 15.3553C96.6928 19.5679 97.738 21.0438 99.7841 20.9615C101.868 20.8791 102.685 19.3335 102.571 15.1146C102.432 10.2179 102.286 5.32115 102.147 0.418097C103.756 0.373754 105.359 0.335746 106.968 0.316742C107.031 5.19445 107.101 10.0722 107.164 14.9435V14.9499Z" fill="#F3EEEA"/>
<path d="M125.56 18.4593C125.344 22.5008 122.361 25.2564 117.768 25.1424C114.404 25.0664 112.079 23.318 110.344 21.2339C111.357 20.176 112.384 19.1181 113.422 18.0729C114.93 19.9669 116.533 20.8981 118.04 20.9361C119.909 20.9805 120.878 20.0113 120.935 18.3706C120.98 16.9833 120.118 15.824 117.128 14.291C113.34 12.3336 110.984 10.5029 110.977 6.46137C110.958 2.80626 113.974 -0.107697 118.541 -7.63568e-06C121.898 0.0823433 123.944 1.39362 125.743 3.74379C124.641 4.65599 123.552 5.57452 122.468 6.49938C120.98 4.83969 120.15 4.2569 118.325 4.21256C116.799 4.17455 115.798 5.06774 115.779 6.29034C115.754 7.75998 116.653 8.66584 119.453 10.1672C123.906 12.5617 125.75 14.3607 125.547 18.4593H125.56Z" fill="#F3EEEA"/>
<path d="M150.455 20.7778C149.891 24.7813 146.679 27.2708 142.106 26.7704C138.755 26.403 136.588 24.4646 135.036 22.2348C136.138 21.2655 137.253 20.3027 138.381 19.3525C139.724 21.3669 141.238 22.4375 142.745 22.6022C144.608 22.8112 145.659 21.9244 145.856 20.2963C146.02 18.9154 145.26 17.6865 142.41 15.9064C138.799 13.6323 136.607 11.6052 136.943 7.57629C137.241 3.93384 140.49 1.29228 145.045 1.79272C148.39 2.16647 150.322 3.64878 151.912 6.14465C150.733 6.95549 149.568 7.779 148.409 8.60884C147.066 6.8288 146.287 6.17632 144.468 5.97361C142.948 5.80891 141.871 6.61342 141.751 7.82334C141.599 9.28032 142.422 10.2622 145.083 12.0042C149.321 14.7788 151.012 16.7236 150.455 20.7904V20.7778Z" fill="#F3EEEA"/>
<path d="M168.11 30.4635C166.609 30.1531 165.101 29.8617 163.593 29.5766C163.524 27.8346 163.441 26.0989 163.353 24.3569C161.484 24.0148 159.615 23.6917 157.74 23.3813C157.075 24.9903 156.41 26.5993 155.757 28.2147C154.256 27.974 152.755 27.7459 151.247 27.5369C154.497 19.7896 157.93 12.0929 161.535 4.45328C163.087 4.713 164.639 4.97906 166.184 5.26412C167.008 13.6766 167.641 22.0764 168.097 30.4698L168.11 30.4635ZM163.118 20.1696C163.061 19.1814 162.998 18.1869 162.935 17.1987C162.827 15.2666 162.719 12.3843 162.738 11.149C162.339 12.3526 161.37 14.8358 160.565 16.7109C160.166 17.6421 159.774 18.5796 159.381 19.5172C160.629 19.7262 161.87 19.9416 163.112 20.1633L163.118 20.1696Z" fill="#F3EEEA"/>
<path d="M183.326 34.0173C179.354 32.972 175.37 32.0155 171.366 31.1477C173.089 23.204 174.812 15.2603 176.542 7.31656C178.119 7.65863 179.696 8.01337 181.274 8.38079C179.747 14.9182 178.22 21.4556 176.694 27.9866C179.272 28.5884 181.844 29.2282 184.409 29.8997C184.048 31.268 183.687 32.6426 183.326 34.0109V34.0173Z" fill="#F3EEEA"/>
<path d="M199.397 38.7556C195.203 37.3873 190.991 36.1141 186.753 34.9421C188.919 27.1061 191.08 19.2701 193.246 11.4404C197.731 12.682 202.203 14.025 206.644 15.4693C206.213 16.7933 205.782 18.1172 205.352 19.4475C202.495 18.5163 199.631 17.6294 196.755 16.7869C196.274 18.4339 195.786 20.0873 195.305 21.7343C197.199 22.2918 199.093 22.8682 200.981 23.4637C200.569 24.7686 200.157 26.0799 199.745 27.3849C197.883 26.7957 196.014 26.2319 194.146 25.6808C193.512 27.841 192.879 30.0011 192.245 32.1675C195.077 32.9974 197.896 33.8716 200.702 34.7901C200.271 36.1141 199.834 37.438 199.403 38.7619L199.397 38.7556Z" fill="#F3EEEA"/>
<path d="M218.097 38.5086C216.596 42.265 212.833 43.8994 208.456 42.2904C205.244 41.1185 203.578 38.7113 202.577 36.1711C203.888 35.4996 205.212 34.8344 206.549 34.1756C207.392 36.4625 208.633 37.8624 210.071 38.3945C211.851 39.047 213.099 38.4452 213.682 36.9122C214.17 35.6073 213.714 34.2326 211.332 31.8065C208.316 28.7151 206.644 26.2193 207.936 22.3868C209.096 18.9217 212.915 17.1353 217.274 18.7317C220.479 19.9099 222.025 21.823 223.007 24.6356C221.651 25.136 220.308 25.6491 218.971 26.1686C218.065 24.1098 217.457 23.2863 215.715 22.6465C214.258 22.1144 213.01 22.6338 212.605 23.7804C212.111 25.1614 212.687 26.3143 214.892 28.6518C218.408 32.3766 219.611 34.6824 218.097 38.4959V38.5086Z" fill="#F3EEEA"/>
<path d="M83.9344 46.4903C83.9344 48.0993 82.8258 49.2649 81.0204 49.2649C79.7028 49.2649 78.7843 48.568 78.1191 47.7382L79.2974 46.4776C79.8802 47.2251 80.5073 47.5862 81.0901 47.5862C81.8123 47.5862 82.1733 47.1871 82.1733 46.5346C82.1733 45.9771 81.8249 45.5337 80.691 44.9509C79.2467 44.2034 78.3725 43.4686 78.3725 41.8533C78.3725 40.3963 79.4558 39.2434 81.0901 39.2434C82.3 39.2434 83.0475 39.7311 83.7443 40.6307L82.5914 41.7836C82.0213 41.1438 81.7172 40.9221 81.0521 40.9221C80.4946 40.9221 80.1336 41.2831 80.1336 41.7709C80.1336 42.3537 80.4693 42.7148 81.5209 43.2849C83.1996 44.1844 83.9344 44.8559 83.9344 46.4903Z" fill="#EE433E"/>
<path d="M88.4193 49.1128H86.6836V39.3954H88.4193V49.1128Z" fill="#EE433E"/>
<path d="M97.4277 49.1128H95.7617L93.9689 44.7799C93.7219 44.1718 93.4115 43.3799 93.2341 42.8098C93.2468 43.4053 93.2595 44.4062 93.2595 45.0143V49.1065H91.6758V39.3891H93.4242L95.1345 43.6523C95.3689 44.2351 95.7173 45.1346 95.901 45.6794C95.8883 45.084 95.844 44.0261 95.844 43.4179V39.3891H97.4277V49.1065V49.1128Z" fill="#EE433E"/>
<path d="M106.214 46.7817C105.758 48.378 104.909 49.2649 103.427 49.2649C101.273 49.2649 100.278 47.0604 100.278 44.2668C100.278 41.4732 101.305 39.2434 103.458 39.2434C105.112 39.2434 105.834 40.3013 106.208 41.7012L104.586 42.227C104.339 41.3402 104.073 40.9791 103.433 40.9791C102.502 40.9791 102.058 42.17 102.058 44.2414C102.058 46.3129 102.514 47.5291 103.458 47.5291C104.054 47.5291 104.358 47.1934 104.719 46.1418L106.22 46.7817H106.214Z" fill="#EE433E"/>
<path d="M114.056 49.1128H108.95V39.3954H113.936V41.0614H110.686V43.1139H112.865V44.7546H110.686V47.4468H114.056V49.1128Z" fill="#EE433E"/>
<path d="M123.976 49.1128H122.24V41.8786H120.923V40.7954C121.879 40.7004 122.297 40.1176 122.494 39.3954H123.976V49.1128Z" fill="#EE433E"/>
<path d="M132.928 43.1772C132.928 46.4966 131.458 49.0051 127.999 49.2712V47.5355C130.014 47.4215 130.875 46.1609 131.192 44.9383C130.723 45.464 130.223 45.6731 129.387 45.6731C128.107 45.6731 126.903 44.6469 126.903 42.6451C126.903 40.4406 128.139 39.2434 129.944 39.2434C131.654 39.2434 132.928 40.3836 132.928 43.1709V43.1772ZM131.236 42.5754C131.236 41.6442 130.875 40.8524 129.849 40.8524C129 40.8524 128.601 41.6316 128.601 42.5311C128.601 43.4306 129.019 44.1021 129.862 44.1021C130.818 44.1021 131.236 43.3926 131.236 42.5754Z" fill="#EE433E"/>
<path d="M140.478 41.1311C138.882 43.2026 138.172 45.6541 138.172 49.1128H136.506C136.506 45.8758 137.216 43.1836 138.673 41.0044H134.979V39.3954H140.478V41.1311Z" fill="#EE433E"/>
<path d="M148.434 45.8378C148.434 48.0169 147.224 49.2649 145.146 49.2649C144.158 49.2649 143.164 48.8658 142.467 48.207L143.436 46.8894C144.101 47.3898 144.557 47.5545 145.229 47.5545C146.23 47.5545 146.686 46.9147 146.686 45.9328C146.686 44.9509 146.255 44.4885 145.545 44.4885C145.089 44.4885 144.684 44.6849 144.323 45.027L142.904 44.3618L143.138 39.3954H147.927V41.0741H144.678L144.551 43.1962C144.899 42.9745 145.286 42.8352 145.926 42.8352C147.338 42.8352 148.421 43.8234 148.421 45.8315L148.434 45.8378Z" fill="#EE433E"/>
</g>
<defs>
<clipPath id="clip0_738_7491">
<rect width="223" height="49.2712" fill="white"/>
</clipPath>
</defs>
</svg>
