<svg width="215" height="80" viewBox="0 0 215 80" fill="none" xmlns="http://www.w3.org/2000/svg">
<path d="M17.9314 32.0092C19.159 35.7103 17.4184 39.2465 13.1981 40.7856C10.1078 41.9215 7.36553 41.1887 5.05081 39.9366C5.60659 38.6235 6.16847 37.3104 6.74868 35.9973C8.79467 37.1516 10.578 37.4204 11.9705 36.9135C13.6928 36.2844 14.2303 35.069 13.705 33.5788C13.2592 32.3146 12.0621 31.5817 8.80077 31.2763C4.65383 30.8732 1.85662 30.0792 0.427483 26.4514C-0.873401 23.1778 0.848896 19.4828 5.05081 17.9438C8.14117 16.82 10.4681 17.2658 12.9294 18.7377C12.2515 19.947 11.5797 21.1624 10.9201 22.3778C8.97789 21.4189 8.01902 21.1929 6.33948 21.8037C4.93477 22.3167 4.33624 23.4771 4.75155 24.5764C5.24625 25.9017 6.38834 26.3903 9.46649 26.7446C14.3646 27.3065 16.6733 28.2592 17.9375 32.0092H17.9314Z" fill="#F3EEEA"/>
<path d="M34.3054 23.9045C35.8628 29.8226 34.9894 33.8047 29.9019 35.2827C24.9855 36.7362 21.8646 33.7314 20.0445 28.1675C18.591 23.6724 17.1374 19.1774 15.6899 14.6823C17.1802 14.1998 18.6765 13.7295 20.1728 13.2715C21.5531 17.791 22.9334 22.3105 24.3136 26.8239C25.5046 30.7082 26.8421 31.8442 28.7537 31.2762C30.702 30.7082 31.1112 29.0592 30.0058 25.1443C28.7171 20.6004 27.4345 16.0503 26.1459 11.5064C27.6483 11.0789 29.1568 10.6697 30.6654 10.2666C31.8746 14.8105 33.0839 19.3545 34.2871 23.8984L34.3054 23.9045Z" fill="#F3EEEA"/>
<path d="M54.7837 28.8392C53.2507 29.1385 51.7239 29.45 50.197 29.7737C48.3526 27.1231 46.4715 24.4846 44.5537 21.8646C44.0774 21.9745 43.6071 22.0783 43.1307 22.1882C43.8025 25.0893 44.4804 27.9903 45.1523 30.8913C43.7537 31.215 42.3551 31.5509 40.9626 31.8991C39.0693 24.2953 37.176 16.6916 35.2888 9.08169C37.5424 8.51981 39.8022 7.98846 42.0619 7.48155C47.0395 6.36999 50.7039 8.1839 51.62 12.9599C52.243 16.1907 50.8749 18.5421 48.7251 20.0934C50.7894 22.9883 52.811 25.9016 54.7837 28.8392ZM47.1738 13.931C46.7402 11.8606 45.4515 10.92 42.7459 11.5247C42.0863 11.6712 41.4267 11.8239 40.7671 11.9766C41.2618 14.102 41.7565 16.2274 42.2512 18.3589C42.978 18.1879 43.7048 18.023 44.4316 17.8642C46.6791 17.3634 47.6197 16.0381 47.1738 13.931Z" fill="#F3EEEA"/>
<path d="M69.9607 10.1627C70.5898 15.1953 67.0902 18.1757 62.9494 18.8414C62.2959 18.9452 61.6424 19.0491 60.995 19.159C61.4531 21.9318 61.9111 24.7045 62.3692 27.4773C60.9584 27.7094 59.5475 27.9537 58.1367 28.2102C56.7381 20.4965 55.3334 12.7889 53.9348 5.07525C56.2129 4.65994 58.491 4.27518 60.7751 3.91484C65.6916 3.13919 69.35 5.27069 69.9607 10.1627ZM65.4718 10.8468C65.1969 8.91683 64.0304 7.54876 61.3737 7.97017C60.6469 8.08622 59.9201 8.20226 59.1933 8.3244C59.5659 10.5903 59.9445 12.85 60.3171 15.1159C61.05 14.9937 61.7829 14.8777 62.5158 14.7616C64.7816 14.4074 65.771 12.9783 65.4657 10.8529L65.4718 10.8468Z" fill="#F3EEEA"/>
<path d="M86.7805 24.5519C82.8596 24.845 78.9508 25.2176 75.0421 25.6817C74.1259 17.9009 73.2098 10.1139 72.2876 2.33303C73.8267 2.1498 75.3719 1.9849 76.917 1.82611C77.5766 8.26335 78.2301 14.7006 78.8897 21.1378C81.4182 20.8813 83.9467 20.6553 86.4813 20.466C86.5851 21.828 86.6828 23.1899 86.7866 24.5519H86.7805Z" fill="#F3EEEA"/>
<path d="M103.319 14.4135C103.387 20.5393 101.585 24.1793 96.3387 24.3748C91.2695 24.5824 88.9976 20.8996 88.6006 15.0609C88.2891 10.346 87.9837 5.63104 87.6722 0.916102C89.2174 0.812276 90.7687 0.726772 92.3139 0.647375C92.546 5.36842 92.7842 10.0834 93.0162 14.8044C93.2239 18.8659 94.2316 20.2889 96.2043 20.2095C98.2137 20.1301 99.0015 18.6399 98.8916 14.5723C98.7572 9.85128 98.6168 5.13023 98.4824 0.403078C100.034 0.360326 101.579 0.323681 103.13 0.305359C103.191 5.00808 103.258 9.71081 103.319 14.4074V14.4135Z" fill="#F3EEEA"/>
<path d="M121.055 17.797C120.848 21.6936 117.971 24.3503 113.543 24.2404C110.3 24.1671 108.059 22.4814 106.385 20.4721C107.363 19.4522 108.352 18.4322 109.354 17.4245C110.807 19.2506 112.352 20.1484 113.806 20.1851C115.608 20.2278 116.542 19.2934 116.597 17.7115C116.64 16.374 115.809 15.2564 112.926 13.7784C109.274 11.8912 107.002 10.1261 106.996 6.22956C106.978 2.70557 109.885 -0.103846 114.288 -1.98151e-05C117.525 0.0793768 119.498 1.34362 121.233 3.60947C120.17 4.48894 119.119 5.37452 118.075 6.26621C116.64 4.66606 115.84 4.10418 114.081 4.06142C112.609 4.02478 111.644 4.88593 111.626 6.06466C111.601 7.48159 112.468 8.35495 115.168 9.80241C119.461 12.111 121.239 13.8455 121.043 17.797H121.055Z" fill="#F3EEEA"/>
<path d="M145.058 20.0324C144.514 23.8923 141.418 26.2925 137.008 25.81C133.777 25.4558 131.689 23.5869 130.192 21.4371C131.255 20.5027 132.33 19.5743 133.417 18.6582C134.712 20.6004 136.171 21.6325 137.625 21.7913C139.421 21.9929 140.434 21.1378 140.624 19.5682C140.782 18.2368 140.05 17.052 137.301 15.3358C133.82 13.1432 131.707 11.1888 132.031 7.30449C132.318 3.79271 135.451 1.24591 139.842 1.7284C143.067 2.08874 144.929 3.51788 146.462 5.92421C145.326 6.70596 144.203 7.49993 143.085 8.3C141.79 6.58381 141.039 5.95475 139.286 5.75931C137.82 5.60051 136.782 6.37616 136.666 7.54268C136.52 8.94739 137.313 9.89404 139.879 11.5736C143.964 14.2486 145.595 16.1236 145.058 20.0446V20.0324Z" fill="#F3EEEA"/>
<path d="M162.079 29.3707C160.632 29.0714 159.178 28.7905 157.724 28.5157C157.657 26.8361 157.578 25.1627 157.492 23.4831C155.691 23.1533 153.889 22.8419 152.081 22.5426C151.44 24.0939 150.799 25.6452 150.17 27.2026C148.722 26.9705 147.275 26.7506 145.821 26.5491C148.954 19.0797 152.264 11.6591 155.74 4.29358C157.236 4.54398 158.732 4.8005 160.222 5.07533C161.016 13.186 161.627 21.2845 162.067 29.3768L162.079 29.3707ZM157.266 19.4461C157.211 18.4934 157.15 17.5345 157.089 16.5817C156.985 14.719 156.882 11.9401 156.9 10.7491C156.515 11.9095 155.581 14.3037 154.805 16.1115C154.42 17.0093 154.042 17.9132 153.663 18.8171C154.866 19.0186 156.063 19.2263 157.26 19.44L157.266 19.4461Z" fill="#F3EEEA"/>
<path d="M176.749 32.797C172.92 31.7892 169.078 30.867 165.218 30.0303C166.88 22.3716 168.541 14.7129 170.208 7.05414C171.729 7.38394 173.25 7.72596 174.77 8.08019C173.298 14.3831 171.827 20.6859 170.355 26.9827C172.84 27.5629 175.32 28.1798 177.794 28.8271C177.445 30.1463 177.097 31.4717 176.749 32.7909V32.797Z" fill="#F3EEEA"/>
<path d="M192.244 37.3653C188.201 36.0461 184.139 34.8185 180.053 33.6886C182.142 26.1337 184.225 18.5788 186.313 11.03C190.637 12.2271 194.949 13.5219 199.231 14.9144C198.815 16.1908 198.4 17.4673 197.985 18.7498C195.23 17.852 192.47 16.997 189.697 16.1847C189.233 17.7726 188.762 19.3667 188.298 20.9546C190.124 21.4921 191.951 22.0478 193.771 22.6219C193.374 23.8801 192.977 25.1443 192.58 26.4024C190.784 25.8345 188.982 25.2909 187.181 24.7595C186.57 26.8422 185.959 28.9248 185.348 31.0136C188.078 31.8136 190.796 32.6565 193.502 33.542C193.087 34.8185 192.665 36.0949 192.25 37.3714L192.244 37.3653Z" fill="#F3EEEA"/>
<path d="M210.273 37.1271C208.825 40.7488 205.198 42.3245 200.977 40.7733C197.881 39.6434 196.275 37.3226 195.31 34.8735C196.574 34.2261 197.85 33.5848 199.139 32.9496C199.951 35.1544 201.148 36.5042 202.535 37.0172C204.251 37.6463 205.454 37.066 206.016 35.588C206.486 34.3299 206.047 33.0046 203.75 30.6655C200.843 27.685 199.231 25.2787 200.477 21.5837C201.594 18.2429 205.277 16.5206 209.479 18.0597C212.569 19.1957 214.06 21.0401 215.006 23.7518C213.699 24.2343 212.404 24.729 211.116 25.2298C210.242 23.2449 209.656 22.451 207.977 21.8341C206.572 21.3211 205.369 21.8219 204.978 22.9273C204.501 24.2588 205.057 25.3703 207.183 27.624C210.572 31.2151 211.733 33.4382 210.273 37.1149V37.1271Z" fill="#F3EEEA"/>
<path d="M79.2134 77.1858C79.2134 78.737 78.1446 79.8608 76.404 79.8608C75.1337 79.8608 74.2481 79.189 73.6068 78.3889L74.7428 77.1735C75.3047 77.8942 75.9093 78.2423 76.4712 78.2423C77.1674 78.2423 77.5156 77.8576 77.5156 77.2285C77.5156 76.6911 77.1797 76.2635 76.0864 75.7016C74.6939 74.981 73.8511 74.2725 73.8511 72.7151C73.8511 71.3104 74.8955 70.1989 76.4712 70.1989C77.6377 70.1989 78.3584 70.6691 79.0302 71.5364L77.9187 72.6479C77.369 72.0311 77.0758 71.8173 76.4346 71.8173C75.8971 71.8173 75.549 72.1654 75.549 72.6357C75.549 73.1976 75.8727 73.5457 76.8865 74.0954C78.505 74.9626 79.2134 75.61 79.2134 77.1858Z" fill="#EE433E"/>
<path d="M83.5314 79.7143H81.858V70.3455H83.5314V79.7143Z" fill="#EE433E"/>
<path d="M92.2162 79.7143H90.6099L88.8815 75.5368C88.6434 74.9505 88.3441 74.187 88.1731 73.6374C88.1853 74.2115 88.1975 75.1764 88.1975 75.7628V79.7082H86.6707V70.3394H88.3563L90.0053 74.4497C90.2313 75.0115 90.5672 75.8788 90.7443 76.404C90.7321 75.8299 90.6893 74.81 90.6893 74.2237V70.3394H92.2162V79.7082V79.7143Z" fill="#EE433E"/>
<path d="M100.687 77.4667C100.247 79.0058 99.429 79.8608 97.9999 79.8608C95.9233 79.8608 94.9645 77.7354 94.9645 75.042C94.9645 72.3487 95.9539 70.1989 98.0304 70.1989C99.6244 70.1989 100.321 71.2188 100.681 72.5685L99.1175 73.0755C98.8793 72.2204 98.6228 71.8723 98.006 71.8723C97.1082 71.8723 96.6807 73.0205 96.6807 75.0176C96.6807 77.0147 97.1204 78.1874 98.0304 78.1874C98.6045 78.1874 98.8977 77.8637 99.2458 76.8498L100.693 77.4667H100.687Z" fill="#EE433E"/>
<path d="M108.248 79.7143H103.326V70.3455H108.132V71.9517H104.999V73.9305H107.1V75.5123H104.999V78.108H108.248V79.7143Z" fill="#EE433E"/>
<path d="M117.818 79.7143H116.145V72.7396H114.875V71.6952C115.797 71.6036 116.2 71.0417 116.389 70.3455H117.818V79.7143Z" fill="#EE433E"/>
<path d="M126.448 73.9855C126.448 77.1858 125.031 79.6043 121.697 79.8608V78.1874C123.639 78.0775 124.47 76.8621 124.775 75.6833C124.323 76.1902 123.84 76.3918 123.034 76.3918C121.801 76.3918 120.64 75.4024 120.64 73.4724C120.64 71.3471 121.831 70.1927 123.572 70.1927C125.221 70.1927 126.448 71.2921 126.448 73.9794V73.9855ZM124.818 73.4114C124.818 72.5136 124.469 71.7501 123.48 71.7501C122.662 71.7501 122.277 72.5014 122.277 73.3686C122.277 74.2359 122.68 74.8833 123.492 74.8833C124.415 74.8833 124.818 74.1992 124.818 73.4114Z" fill="#EE433E"/>
<path d="M133.728 72.0189C132.189 74.016 131.505 76.3796 131.505 79.7143H129.899C129.899 76.5934 130.583 73.9977 131.988 71.8967H128.427V70.3455H133.728V72.0189Z" fill="#EE433E"/>
<path d="M141.393 76.5567C141.393 78.6577 140.227 79.8608 138.223 79.8608C137.271 79.8608 136.312 79.4761 135.64 78.8409L136.574 77.5706C137.216 78.053 137.655 78.2118 138.303 78.2118C139.268 78.2118 139.708 77.595 139.708 76.6483C139.708 75.7017 139.292 75.2558 138.608 75.2558C138.168 75.2558 137.778 75.4452 137.429 75.775L136.061 75.1337L136.287 70.3455H140.905V71.9639H137.772L137.649 74.0099C137.985 73.7962 138.358 73.6618 138.975 73.6618C140.337 73.6618 141.381 74.6146 141.381 76.5506L141.393 76.5567Z" fill="#EE433E"/>
<path d="M68.9346 61.5141H66.0153L62.876 53.9165C62.4363 52.8477 61.905 51.4552 61.5874 50.4597C61.6118 51.504 61.6362 53.263 61.6362 54.3318V61.5141H58.8574V44.4683H61.9233L64.9159 51.9438C65.3312 52.9637 65.9359 54.5516 66.2535 55.4983C66.229 54.4539 66.1557 52.6034 66.1557 51.5285V44.4683H68.9346V61.5141Z" fill="#F3EEEA"/>
<path d="M81.064 61.5141H72.1044V44.4683H80.8441V47.3937H75.1459V50.9971H78.9691V53.8737H75.1459V58.5948H81.064V61.5202V61.5141Z" fill="#F3EEEA"/>
<path d="M93.7736 56.2312C93.7736 59.7368 91.7764 61.5141 88.1242 61.5141H83.6902V44.4683H88.2952C91.41 44.4683 93.3583 46.1967 93.3583 49.0244C93.3583 50.4597 92.6254 51.7789 91.2634 52.3591C92.6254 52.8965 93.7736 54.1363 93.7736 56.2312ZM90.3412 49.1404C90.3412 47.9739 89.8037 47.2655 88.3196 47.2655H86.6645V50.991H88.3929C89.877 50.991 90.3412 50.1115 90.3412 49.1404ZM90.7565 56.3045C90.7565 54.5272 89.9747 53.721 88.1975 53.721H86.6645V58.7108H88.2952C90.0236 58.7108 90.7565 57.7153 90.7565 56.2984V56.3045Z" fill="#F3EEEA"/>
<path d="M106.196 61.5141H102.886L100.229 55.0341H99.2336V61.5141H96.1921V44.4683H100.724C104.034 44.4683 106.153 46.2455 106.153 49.7756C106.153 52.1636 104.938 53.6477 103.283 54.4295L106.202 61.5141H106.196ZM103.106 49.8245C103.106 48.2915 102.397 47.4365 100.571 47.4365H99.2336V52.1881H100.742C102.3 52.1881 103.106 51.3819 103.106 49.8245Z" fill="#F3EEEA"/>
<path d="M119.132 61.5141H115.992L115.186 57.9596H111.363L110.557 61.5141H107.442L111.803 44.4683H114.771L119.132 61.5141ZM114.527 55.1074L114.062 53.0859C113.769 51.7728 113.378 49.8001 113.256 48.945C113.134 49.8245 112.792 51.6506 112.475 53.037L112.01 55.1074H114.521H114.527Z" fill="#F3EEEA"/>
<path d="M130.333 56.9091C130.333 59.7369 128.384 61.7768 125.221 61.7768C122.906 61.7768 121.3 60.5614 120.133 59.0956L122.204 56.8786C123.224 58.1917 124.323 58.8269 125.343 58.8269C126.607 58.8269 127.242 58.1184 127.242 56.9763C127.242 55.9991 126.631 55.2235 124.634 54.1974C122.1 52.8843 120.567 51.5896 120.567 48.7679C120.567 46.2089 122.466 44.1873 125.343 44.1873C127.462 44.1873 128.775 45.0424 129.997 46.6242L127.975 48.6458C126.98 47.5281 126.442 47.1372 125.27 47.1372C124.298 47.1372 123.663 47.7724 123.663 48.6213C123.663 49.6413 124.25 50.2765 126.1 51.2781C129.044 52.8599 130.339 54.0325 130.339 56.903L130.333 56.9091Z" fill="#F3EEEA"/>
<path d="M143.335 61.5141H139.927L137.173 54.1852L135.64 56.9397V61.5202H132.599V44.4744H135.64V49.513C135.64 50.5085 135.616 51.3636 135.591 52.1209C135.933 51.4124 136.471 50.3436 136.929 49.4886L139.585 44.4744H142.822L139.195 50.8567L143.335 61.5202V61.5141Z" fill="#F3EEEA"/>
<path d="M156.149 61.5141H153.01L152.203 57.9596H148.38L147.574 61.5141H144.459L148.82 44.4683H151.788L156.149 61.5141ZM151.544 55.1074L151.08 53.0859C150.786 51.7728 150.396 49.8001 150.273 48.945C150.151 49.8245 149.809 51.6506 149.492 53.037L149.028 55.1074H151.538H151.544Z" fill="#F3EEEA"/>
<path d="M106.898 33.3954C106.898 35.6185 106.117 37.3775 104.333 37.3775C102.55 37.3775 101.78 35.6307 101.78 33.4199C101.78 31.209 102.562 29.4378 104.352 29.4378C106.141 29.4378 106.892 31.1845 106.892 33.3954H106.898ZM105.494 33.4137C105.494 31.777 105.152 30.8059 104.339 30.8059C103.527 30.8059 103.197 31.7525 103.197 33.3893C103.197 35.0261 103.539 35.9972 104.364 35.9972C105.188 35.9972 105.5 35.0505 105.5 33.4137H105.494Z" fill="#F3EEEA"/>
<path d="M113.213 30.8853H110.532V32.5892H112.334V33.9206H110.532V37.2553H109.158V29.5538H113.22V30.8853H113.213Z" fill="#F3EEEA"/>
</svg>
